<svg version="1.1" xmlns="http://www.w3.org/2000/svg" width="20" height="14" xml:space="preserve">
  <style>
    .w { fill: #f0f0f0; }
    .r { fill: #d80027; }
    .b { fill: #0052b4; }
  </style>
  <path class="w" d="M0 0h20v14H0z"/>
  <path class="r" d="M11.3 0H8.7v5.7H0v2.6h8.7V14h2.6V8.3H20V5.7h-8.7z"/>
  <path class="b" d="M15.4 9.4l4.6 2.7V9.4zM12.2 9.4L20 14v-1.3l-5.6-3.3zM17.9 14l-5.7-3.3V14z"/>
  <path class="w" d="M12.2 9.4L20 14v-1.3l-5.6-3.3z"/>
  <path class="r" d="M12.2 9.4L20 14v-1.3l-5.6-3.3z"/>
  <path class="b" d="M3.5 9.4L0 11.5V9.4zM7.8 10v4H1z"/>
  <path class="r" d="M5.6 9.4L0 12.7V14l7.8-4.6z"/>
  <path class="b" d="M4.6 4.6L0 1.9v2.7zM7.8 4.6L0 0v1.3l5.6 3.3zM2.1 0l5.7 3.3V0z"/>
  <path class="w" d="M7.8 4.6L0 0v1.3l5.6 3.3z"/>
  <path class="r" d="M7.8 4.6L0 0v1.3l5.6 3.3z"/>
  <path class="b" d="M16.5 4.6L20 2.5v2.1zM12.2 4V0H19z"/>
  <path class="r" d="M14.4 4.6L20 1.3V0l-7.8 4.6z"/>
</svg>
